<?xml version="1.0" encoding="UTF-8"?>
<svg width="262px" height="357px" viewBox="0 0 262 357" version="1.1" xmlns="http://www.w3.org/2000/svg" xmlns:xlink="http://www.w3.org/1999/xlink">
    <!-- Generator: Sketch 64 (93537) - https://sketch.com -->
    <title>编组 22</title>
    <desc>Created with Sketch.</desc>
    <defs>
        <path d="M0,0 L168,0 L168,122.346976 C168,125.108399 165.761424,127.346976 163,127.346976 C161.617098,127.346976 160.295954,126.774227 159.350628,125.764883 L83.7083333,45 L83.7083333,45 L8.66118923,125.68782 C6.78052436,127.709839 3.61677399,127.82443 1.59475502,125.943765 C0.577731905,124.997839 4.28026583e-14,123.6715 0,122.282575 L0,0 L0,0 Z" id="path-1"></path>
        <linearGradient x1="50%" y1="0%" x2="50%" y2="100%" id="linearGradient-3">
            <stop stop-color="#7CADDC" offset="0%"></stop>
            <stop stop-color="#A5CBEE" offset="100%"></stop>
        </linearGradient>
        <polygon id="path-4" points="148 0 276.17176 74 276.17176 222 148 296 19.8282402 222 19.8282402 74"></polygon>
        <filter x="3.7%" y="-2.0%" width="92.7%" height="108.1%" filterUnits="objectBoundingBox" id="filter-5">
            <feOffset dx="0" dy="9" in="SourceAlpha" result="shadowOffsetOuter1"></feOffset>
            <feGaussianBlur stdDeviation="1.5" in="shadowOffsetOuter1" result="shadowBlurOuter1"></feGaussianBlur>
            <feColorMatrix values="0 0 0 0 0   0 0 0 0 0   0 0 0 0 0  0 0 0 0.0370957168 0" type="matrix" in="shadowBlurOuter1"></feColorMatrix>
        </filter>
        <filter x="3.2%" y="-2.5%" width="93.7%" height="109.1%" filterUnits="objectBoundingBox" id="filter-6">
            <feGaussianBlur stdDeviation="5" in="SourceAlpha" result="shadowBlurInner1"></feGaussianBlur>
            <feOffset dx="0" dy="5" in="shadowBlurInner1" result="shadowOffsetInner1"></feOffset>
            <feComposite in="shadowOffsetInner1" in2="SourceAlpha" operator="arithmetic" k2="-1" k3="1" result="shadowInnerInner1"></feComposite>
            <feColorMatrix values="0 0 0 0 1   0 0 0 0 1   0 0 0 0 1  0 0 0 0.5 0" type="matrix" in="shadowInnerInner1" result="shadowMatrixInner1"></feColorMatrix>
            <feGaussianBlur stdDeviation="5" in="SourceAlpha" result="shadowBlurInner2"></feGaussianBlur>
            <feOffset dx="0" dy="-5" in="shadowBlurInner2" result="shadowOffsetInner2"></feOffset>
            <feComposite in="shadowOffsetInner2" in2="SourceAlpha" operator="arithmetic" k2="-1" k3="1" result="shadowInnerInner2"></feComposite>
            <feColorMatrix values="0 0 0 0 0   0 0 0 0 0.214682239   0 0 0 0 0.41870471  0 0 0 0.126338505 0" type="matrix" in="shadowInnerInner2" result="shadowMatrixInner2"></feColorMatrix>
            <feMerge>
                <feMergeNode in="shadowMatrixInner1"></feMergeNode>
                <feMergeNode in="shadowMatrixInner2"></feMergeNode>
            </feMerge>
        </filter>
        <radialGradient cx="50%" cy="53.7067582%" fx="50%" fy="53.7067582%" r="74.9660946%" id="radialGradient-7">
            <stop stop-color="#E0F0FF" offset="0%"></stop>
            <stop stop-color="#BCDCF9" offset="100%"></stop>
        </radialGradient>
        <polygon id="path-8" points="148 22 257.119201 85 257.119201 211 148 274 38.8807991 211 38.8807991 85"></polygon>
        <filter x="-5.4%" y="-11.7%" width="110.8%" height="124.2%" filterUnits="objectBoundingBox" id="filter-9">
            <feOffset dx="0" dy="1" in="SourceAlpha" result="shadowOffsetOuter1"></feOffset>
            <feGaussianBlur stdDeviation="10" in="shadowOffsetOuter1" result="shadowBlurOuter1"></feGaussianBlur>
            <feColorMatrix values="0 0 0 0 0.424564085   0 0 0 0 0.317072189   0 0 0 0 0.0201117819  0 0 0 0.302283654 0" type="matrix" in="shadowBlurOuter1"></feColorMatrix>
        </filter>
        <filter x="-3.2%" y="-9.5%" width="106.4%" height="119.8%" filterUnits="objectBoundingBox" id="filter-10">
            <feGaussianBlur stdDeviation="4.5" in="SourceAlpha" result="shadowBlurInner1"></feGaussianBlur>
            <feOffset dx="0" dy="1" in="shadowBlurInner1" result="shadowOffsetInner1"></feOffset>
            <feComposite in="shadowOffsetInner1" in2="SourceAlpha" operator="arithmetic" k2="-1" k3="1" result="shadowInnerInner1"></feComposite>
            <feColorMatrix values="0 0 0 0 0   0 0 0 0 0   0 0 0 0 0  0 0 0 0.193755463 0" type="matrix" in="shadowInnerInner1"></feColorMatrix>
        </filter>
        <filter x="-24.1%" y="-24.1%" width="148.2%" height="148.2%" filterUnits="objectBoundingBox" id="filter-11">
            <feOffset dx="0" dy="1" in="SourceAlpha" result="shadowOffsetOuter1"></feOffset>
            <feGaussianBlur stdDeviation="10" in="shadowOffsetOuter1" result="shadowBlurOuter1"></feGaussianBlur>
            <feColorMatrix values="0 0 0 0 0.913833841   0 0 0 0 0.958606453   0 0 0 0 1  0 0 0 1 0" type="matrix" in="shadowBlurOuter1" result="shadowMatrixOuter1"></feColorMatrix>
            <feMerge>
                <feMergeNode in="shadowMatrixOuter1"></feMergeNode>
                <feMergeNode in="SourceGraphic"></feMergeNode>
            </feMerge>
        </filter>
        <linearGradient x1="80.2117149%" y1="88.687681%" x2="11.9232554%" y2="0%" id="linearGradient-12">
            <stop stop-color="#71A5D7" offset="0%"></stop>
            <stop stop-color="#BFDEFA" offset="100%"></stop>
        </linearGradient>
        <path d="M64.8710141,116.625546 L32.9697895,115.330018 C32.2800022,115.302006 31.7435278,114.720114 31.7715405,114.030326 C31.7790203,113.846142 31.8271439,113.665891 31.9124635,113.502489 L47.0559119,84.5 L47.0559119,84.5 L31.9146843,55.4974464 C31.5951922,54.8854692 31.8322983,54.1303641 32.4442755,53.810872 C32.6076601,53.7255746 32.7878857,53.6774634 32.9720439,53.6699844 L65.5291512,52.3477749 L65.5291512,52.3477749 L82.9421232,24.6808285 C83.3098488,24.0965604 84.0815922,23.921018 84.6658603,24.2887436 C84.82425,24.3884306 84.9582342,24.5224109 85.0579258,24.6807976 L102.472044,52.3477749 L102.472044,52.3477749 L135.030137,53.6699787 C135.719925,53.6979913 136.256399,54.2798833 136.228386,54.9696706 C136.220906,55.1538693 136.172776,55.3341333 136.087444,55.4975457 L120.942773,84.5 L120.942773,84.5 L136.085112,113.502522 C136.404623,114.11449 136.16754,114.869602 135.555572,115.189113 C135.392179,115.274421 135.211941,115.322539 135.02777,115.330018 L102.470729,116.652225 L102.470729,116.652225 L85.0577606,144.319166 C84.6900351,144.903434 83.9182917,145.078977 83.3340236,144.711251 C83.1756329,144.611563 83.041648,144.477582 82.9419562,144.319194 L65.8781862,117.208663 C65.6589389,116.860328 65.2822656,116.642247 64.8710141,116.625546 Z" id="path-13"></path>
        <filter x="-2.1%" y="-1.5%" width="104.2%" height="103.1%" filterUnits="objectBoundingBox" id="filter-14">
            <feGaussianBlur stdDeviation="2.5" in="SourceAlpha" result="shadowBlurInner1"></feGaussianBlur>
            <feOffset dx="0" dy="1" in="shadowBlurInner1" result="shadowOffsetInner1"></feOffset>
            <feComposite in="shadowOffsetInner1" in2="SourceAlpha" operator="arithmetic" k2="-1" k3="1" result="shadowInnerInner1"></feComposite>
            <feColorMatrix values="0 0 0 0 0.170366144   0 0 0 0 0.278903019   0 0 0 0 0.383265399  0 0 0 0.3 0" type="matrix" in="shadowInnerInner1"></feColorMatrix>
        </filter>
    </defs>
    <g id="页面-1" stroke="none" stroke-width="1" fill="none" fill-rule="evenodd">
        <g id="编组-22" transform="translate(-17.000000, 0.000000)">
            <g id="矩形-+-矩形备份-35-蒙版备份-2" transform="translate(64.000000, 229.000000)">
                <mask id="mask-2" fill="white">
                    <use xlink:href="#path-1"></use>
                </mask>
                <use id="蒙版" fill="#D8D8D8" xlink:href="#path-1"></use>
                <rect id="矩形" fill="url(#linearGradient-3)" mask="url(#mask-2)" x="0" y="-39" width="38" height="174"></rect>
                <rect id="矩形备份-35" fill="url(#linearGradient-3)" mask="url(#mask-2)" x="130" y="-39" width="38" height="174"></rect>
            </g>
            <g id="多边形备份-6">
                <use fill="black" fill-opacity="1" filter="url(#filter-5)" xlink:href="#path-4"></use>
                <use fill="#91C7FB" fill-rule="evenodd" xlink:href="#path-4"></use>
                <use fill="black" fill-opacity="1" filter="url(#filter-6)" xlink:href="#path-4"></use>
            </g>
            <g id="多边形备份-7">
                <use fill="black" fill-opacity="1" filter="url(#filter-9)" xlink:href="#path-8"></use>
                <use fill="url(#radialGradient-7)" fill-rule="evenodd" xlink:href="#path-8"></use>
                <use fill="black" fill-opacity="1" filter="url(#filter-10)" xlink:href="#path-8"></use>
            </g>
            <g id="编组-8备份" filter="url(#filter-11)" transform="translate(64.000000, 64.000000)">
                <polygon id="多边形备份-3" fill="url(#linearGradient-12)" points="84 0 156.746134 42 156.746134 126 84 168 11.2538661 126 11.2538661 42"></polygon>
                <g id="路径备份-2" fill-rule="nonzero">
                    <use fill="#FFFFFF" xlink:href="#path-13"></use>
                    <use fill="black" fill-opacity="1" filter="url(#filter-14)" xlink:href="#path-13"></use>
                </g>
            </g>
        </g>
    </g>
</svg>